<svg width="169" height="170" xmlns="http://www.w3.org/2000/svg" data-name="Capa 1">
 <g>
  <title>Layer 1</title>
  <path stroke-width="0" class="cls-3" d="m104.32005,84.7432a20.63,20.63 0 0 1 -1,6.22a19.55,19.55 0 0 1 -37.06,0l-0.21,-0.67a19.57,19.57 0 0 1 6.51,-20.78a19.29,19.29 0 0 1 9.74,-4.12a18.2,18.2 0 0 1 2.47,-0.16a19.53,19.53 0 0 1 19.55,19.54l0,-0.03z" fill="#65fd08" id="svg_8"/>
  <path stroke-width="0" class="cls-3" d="m168.16005,69.5132l-34.4,0a51.31,51.31 0 0 0 -98,0l26.19,0l-23.4,21.48l-4.11,3.78l-27,24.79a84.23,84.23 0 0 1 -7.21,-28.57c-0.16,-2.06 -0.23,-4.12 -0.23,-6.22a84.59,84.59 0 0 1 33.9,-67.81a84.77,84.77 0 0 1 134.26,52.55z" fill="#65fd08" id="svg_9"/>
  <path stroke-width="0" class="cls-3" d="m169.31005,90.9632a84.77,84.77 0 0 1 -152.47,44.48l24.88,-22.84a51.27,51.27 0 0 0 86.79,-1.09l-20.61,-20.55l61.41,0z" fill="#65fd08" id="svg_10"/>
 </g>

</svg>