<svg width="708" height="183" xmlns="http://www.w3.org/2000/svg" data-name="Capa 1">
 <g>
  <title>Layer 1</title>
  <path class="cls-2" d="m221.51004,40.56312l0,0a4.66,4.66 0 0 0 6.83,3.74a47.29,47.29 0 0 1 6.34,-2.89a43.68,43.68 0 0 1 31.6,0.85a43.2,43.2 0 0 1 23,23a43.75,43.75 0 0 1 0,33.82a43.2,43.2 0 0 1 -23,23a42.26,42.26 0 0 1 -16.91,3.4a41.4,41.4 0 0 1 -23.78,-7.14l0,30.61l-27.87,34l0,-142.39l23.79,0zm43.33,41.63a17.69,17.69 0 0 0 -1.62,-7.56a22.32,22.32 0 0 0 -4.25,-6.21a18.85,18.85 0 0 0 -6.2,-4.24a19.16,19.16 0 0 0 -7.64,-1.53a18.62,18.62 0 0 0 -7.57,1.53a20.39,20.39 0 0 0 -10.45,10.45a19.56,19.56 0 0 0 0,15.12a20.49,20.49 0 0 0 10.45,10.45a18.62,18.62 0 0 0 7.57,1.53a19.16,19.16 0 0 0 7.64,-1.53a18.73,18.73 0 0 0 6.2,-4.25a22.13,22.13 0 0 0 4.25,-6.2a17.69,17.69 0 0 0 1.62,-7.56z" fill="#ffffff" id="svg_2"/>
  <path class="cls-2" d="m318.19004,25.67312l2.85,-10.6l22.09,0l0,16a6.12,6.12 0 0 0 6.12,6.12l15.8,0l0,22.09l-21.92,0l0,26.17q0,7.14 2.38,10.28c1.59,2.1 4.25,3.14 8,3.14a29.13,29.13 0 0 0 5.18,-0.51q2.81,-0.51 6.37,-1.36l0,22.09a82.11,82.11 0 0 1 -21.24,3.06q-12.74,0 -20.73,-6t-8,-19.37l0,-37.53l-22.61,0l10.72,-22.09l0,0a15.53,15.53 0 0 0 14.99,-11.49z" fill="#ffffff" id="svg_3"/>
  <path class="cls-2" d="m377.80004,49.05312a27.28,27.28 0 0 1 4.16,-3.48a50.07,50.07 0 0 1 8,-4.59a64.91,64.91 0 0 1 11.3,-4a55.38,55.38 0 0 1 14.1,-1.7a62.5,62.5 0 0 1 15,1.78a36.47,36.47 0 0 1 12.83,5.87a29,29 0 0 1 8.92,10.7q3.32,6.63 3.31,16.31l0,50.47l-23.76,0a5.46,5.46 0 0 0 -8.55,-3.25a27.7,27.7 0 0 1 -3.34,2q-6,3 -14.78,3a33.85,33.85 0 0 1 -12,-2a24.55,24.55 0 0 1 -8.67,-5.36a22.29,22.29 0 0 1 -5.27,-8a26.94,26.94 0 0 1 -1.78,-9.86a24.24,24.24 0 0 1 2.29,-10.36a22.22,22.22 0 0 1 7.31,-8.58a40.14,40.14 0 0 1 13,-5.87a73.6,73.6 0 0 1 19.37,-2.21l9.86,0l0,-0.68a9.61,9.61 0 0 0 -3.66,-8q-3.66,-2.89 -12,-2.89a25.55,25.55 0 0 0 -7.22,1a40.28,40.28 0 0 0 -6.29,2.38a34.84,34.84 0 0 0 -4.84,2.8a24.66,24.66 0 0 0 -2.89,2.3l-14.4,-17.78zm51.32,35.69l-8.84,0q-8.5,0 -11.73,3.14a9.66,9.66 0 0 0 -3.23,7a8.19,8.19 0 0 0 2.21,5.44c1.48,1.7 3.85,2.55 7.14,2.55a12.53,12.53 0 0 0 4.59,-1a14.52,14.52 0 0 0 4.67,-3.06a17.69,17.69 0 0 0 3.65,-5.18a16.17,16.17 0 0 0 1.54,-7.22l0,-1.67z" fill="#ffffff" id="svg_4"/>
  <path class="cls-2" d="m500.31004,120.42312l-28,0l0,-83.26l23.79,0a5.17,5.17 0 0 0 8.41,3.46q1,-0.84 2.13,-1.59a21.93,21.93 0 0 1 12.74,-3.74a33.65,33.65 0 0 1 4,0.25a20.77,20.77 0 0 1 4.5,1.11l-0.34,26.34a37.25,37.25 0 0 0 -5.86,-1.87a26.52,26.52 0 0 0 -5.87,-0.68a16.43,16.43 0 0 0 -10.91,3.82q-4.59,3.82 -4.59,12.83l0,43.33z" fill="#ffffff" id="svg_5"/>
  <path class="cls-2" d="m567.60004,37.16312l14.11,53.87l0.33,0l14.28,-53.87l31.58,0l-46.53,122.35l-35.93,23.54l21.82,-63l-31.26,-82.89l31.6,0z" fill="#ffffff" id="svg_6"/>
  <path class="cls-2" d="m688.08004,64.01312c-0.34,-0.34 -1,-0.91 -2,-1.7a26.19,26.19 0 0 0 -3.48,-2.38a23.58,23.58 0 0 0 -4.76,-2a19.15,19.15 0 0 0 -5.78,-0.85c-2.6,0 -4.39,0.45 -5.35,1.36a4,4 0 0 0 -1.44,2.89a3.89,3.89 0 0 0 1.78,3.31a18.47,18.47 0 0 0 4.85,2.3a106.33,106.33 0 0 0 10.61,3a55.89,55.89 0 0 1 11.81,4.16a29,29 0 0 1 9.52,7.31q3.9,4.59 3.91,12.57a25.06,25.06 0 0 1 -10.16,20.53a37.43,37.43 0 0 1 -12,5.87a55.24,55.24 0 0 1 -15.86,2.13a70,70 0 0 1 -21.33,-3.06a38.51,38.51 0 0 1 -15.38,-8.66l16.48,-18.58a21.54,21.54 0 0 0 2.47,2a30.37,30.37 0 0 0 4.42,2.55a41.67,41.67 0 0 0 5.94,2.29a23.86,23.86 0 0 0 7.06,1a19.13,19.13 0 0 0 5.77,-0.85a3.46,3.46 0 0 0 2.74,-3.59a3.73,3.73 0 0 0 -1.53,-3.06a16.32,16.32 0 0 0 -4.25,-2.2a85.71,85.71 0 0 0 -10.79,-3.23a71.75,71.75 0 0 1 -12.32,-4.17a29.69,29.69 0 0 1 -10.11,-7.22q-4.15,-4.59 -4.16,-12.23a25.57,25.57 0 0 1 2.63,-11.56a25.94,25.94 0 0 1 7.48,-9a35.54,35.54 0 0 1 11.73,-5.78a54.63,54.63 0 0 1 15.54,-2a56.83,56.83 0 0 1 12.07,1.19a62.69,62.69 0 0 1 9.52,2.8a38.22,38.22 0 0 1 6.79,3.4a40.35,40.35 0 0 1 4.08,3l-16.5,18.46z" fill="#ffffff" id="svg_7"/>
  <path class="cls-3" d="m104.32004,84.74312a20.63,20.63 0 0 1 -1,6.22a19.55,19.55 0 0 1 -37.06,0l-0.21,-0.67a19.57,19.57 0 0 1 6.51,-20.78a19.29,19.29 0 0 1 9.74,-4.12a18.2,18.2 0 0 1 2.47,-0.16a19.53,19.53 0 0 1 19.55,19.54l0,-0.03z" fill="#65fd08" id="svg_8"/>
  <path class="cls-3" d="m168.16004,69.51312l-34.4,0a51.31,51.31 0 0 0 -98,0l26.19,0l-23.4,21.48l-4.11,3.78l-27,24.79a84.23,84.23 0 0 1 -7.21,-28.57c-0.16,-2.06 -0.23,-4.12 -0.23,-6.22a84.59,84.59 0 0 1 33.9,-67.81a84.77,84.77 0 0 1 134.26,52.55z" fill="#65fd08" id="svg_9"/>
  <path class="cls-3" d="m169.31004,90.96312a84.77,84.77 0 0 1 -152.47,44.48l24.88,-22.84a51.27,51.27 0 0 0 86.79,-1.09l-20.61,-20.55l61.41,0z" fill="#65fd08" id="svg_10"/>
 </g>

</svg>